<svg width="36" height="39" viewBox="0 0 36 39" fill="none" xmlns="http://www.w3.org/2000/svg">
<path fill-rule="evenodd" clip-rule="evenodd" d="M28.5436 25.5047L21.9999 19.5111L28.5436 13.5175L27.6513 12.564L18.1331 21.2819L8.61493 12.564L7.7226 13.5175L14.2664 19.5111L7.7226 25.5047L8.61493 26.4582L15.233 20.3965L18.1331 23.0528L21.0332 20.3965L27.6513 26.4582L28.5436 25.5047ZM6.53679 10.0667C5.31428 10.0667 4.32324 11.1227 4.32324 12.4207V26.6014C4.32324 27.9016 5.30624 28.9555 6.53679 28.9555H29.7294C30.952 28.9555 31.943 27.8995 31.943 26.6014V12.4207C31.943 11.1206 30.96 10.0667 29.7294 10.0667H6.53679Z" fill="#FFD74B"/>
</svg>
